<svg xmlns="http://www.w3.org/2000/svg" viewBox="0 0 1000 501.653">
  <g fill="#FF1515">
    <path d="M616.299,98.725L589.847,0L312.433,74.334l26.465,98.772l0.008,0.043c16.592,3.391,30.698,15.813,35.378,33.277c4.681,17.475-1.328,35.283-14.003,46.516l0.017,0.042l26.47,98.771l277.414-74.334l-26.444-98.729c-16.69-3.34-30.869-15.785-35.575-33.324C597.465,127.833,603.538,109.957,616.299,98.725"/>
    <path d="M913.451,379.239c-36.181,0-63.342,25.18-63.342,61.197c0,36.027,27.161,61.217,63.342,61.217c36.189,0,63.163-25.189,63.163-61.217C976.614,404.419,949.641,379.239,913.451,379.239 M948.181,442.542c-0.504,8.269-3.818,15.746-9.088,21.473c-0.649,0.633-1.247,1.303-1.905,1.927c-6.227,5.8-14.529,9.416-23.711,9.416c-19.286,0-34.925-15.625-34.925-34.921c0-19.286,15.639-34.916,34.925-34.916c18.56,0,33.593,14.528,34.704,32.814V442.542z"/>
    <path d="M781.402,431.571v26.789h26.615v9.221c-4.253,3.549-13.12,7.103-21.814,7.103c-19.355,0-33.013-14.896-33.013-34.243c0-19.512,13.658-34.241,33.013-34.241c11.522,0,20.576,7.269,25,15.088l25.556-13.312c-8.157-14.721-24.129-28.742-50.556-28.742c-35.31,0-64.06,23.601-64.06,61.207c0,37.607,28.75,61.217,64.06,61.217c19.986,0,35.984-7.277,48.165-18.839c0.247-0.239,0.469-0.49,0.725-0.733c1.99-2.17,3.246-5.015,3.442-8.153v-1.601v-40.76H781.402z"/>
    <path d="M692.18,381.186h-2.34c-6.594,0.585-11.762,5.949-12.026,12.611v1.051v51.453l-47.908-65.115h-31.406v118.34h30.509v-68.483l50.043,68.483h29.442v-118.34H692.18z"/>
    <path d="M542.306,381.186h-38.504l-44.526,118.335h34.584l5.859-17.026h46.669l3.071,8.931l0.034,0.102c1.909,4.515,6.282,7.701,11.415,7.994h1.563h24.368L542.306,381.186z M508.063,455.88l15.081-44.539l14.909,44.539H508.063z"/>
    <path d="M398.846,381.186h-49.689v104.328v1.602c0.423,6.804,5.923,12.21,12.791,12.41h0.787h36.287c37.073,0,63.877-22.532,63.877-59.264C462.897,403.542,436.094,381.186,398.846,381.186 M398.846,472.911h-19.163v-65.119h19.338c21.64,0,32.641,14.195,32.641,32.47C431.661,457.831,419.601,472.911,398.846,472.911"/>
    <path d="M311.592,381.186h-1.563c-6.657,0.394-11.958,5.667-12.393,12.316v1.713v51.086l-47.896-65.115h-31.411v118.34h30.519v-68.483l50.035,68.483h29.45v-118.34H311.592z"/>
    <path d="M162.815,381.186h-39.384L78.905,499.521h35.463l5.864-17.026h46.662l3.07,8.931l0.034,0.102c1.913,4.515,6.278,7.701,11.42,7.994h1.559h24.369L162.815,381.186z M128.564,455.88l15.088-44.539l14.904,44.539H128.564z"/>
    <path d="M90.709,406.942v-26.394H0v118.468h32.363V457.25h29.229h2.768c5.526-0.653,9.856-5.192,10.177-10.825v-1.371v-14.452H32.363v-23.659H90.709z"/>
  </g>
  <path fill="#000000" d="M512.808,102.188l-82.565,22.121l16.592,61.925l82.565-22.121l16.591,61.924l-82.565,22.13l16.592,61.921l-82.565,22.122l-20.072-74.929c12.052-14.811,17.083-34.985,11.765-54.831c-5.321-19.854-19.769-34.811-37.611-41.6l-20.448-76.339l165.13-44.244L512.808,102.188z"/>
  <path fill="#FF1515" d="M1000,386.755c0,2.07-0.733,3.848-2.203,5.316c-1.486,1.479-3.255,2.213-5.338,2.213c-2.076,0-3.853-0.734-5.33-2.213c-1.469-1.469-2.204-3.246-2.204-5.316c0-2.071,0.734-3.848,2.204-5.316c1.477-1.47,3.254-2.205,5.33-2.205c2.083,0,3.852,0.735,5.338,2.205C999.267,382.907,1000,384.684,1000,386.755 M998.976,386.755c0-1.811-0.641-3.353-1.905-4.625c-1.281-1.281-2.81-1.918-4.612-1.918c-1.794,0-3.332,0.637-4.603,1.918c-1.273,1.272-1.906,2.814-1.906,4.625s0.632,3.356,1.906,4.633c1.271,1.277,2.809,1.918,4.603,1.918c1.802,0,3.331-0.641,4.612-1.918C998.335,390.111,998.976,388.565,998.976,386.755 M996.789,390.585h-1.972l-2.443-3.063h-1.085v3.063h-1.435v-7.96h2.417c0.547,0,0.974,0.017,1.299,0.064c0.315,0.042,0.632,0.157,0.956,0.337c0.351,0.205,0.599,0.44,0.752,0.717c0.153,0.283,0.23,0.641,0.23,1.077c0,0.589-0.153,1.059-0.47,1.435c-0.324,0.367-0.743,0.666-1.248,0.876L996.789,390.585z M993.937,384.909c0-0.208-0.035-0.4-0.103-0.559c-0.077-0.15-0.197-0.291-0.368-0.394c-0.146-0.098-0.308-0.166-0.487-0.196c-0.18-0.033-0.409-0.043-0.7-0.043h-0.991v2.695h0.854c0.273,0,0.538-0.025,0.777-0.085c0.248-0.056,0.436-0.149,0.589-0.282c0.146-0.133,0.265-0.285,0.333-0.465C993.902,385.409,993.937,385.179,993.937,384.909"/>
</svg>